<?xml version="1.0" encoding="UTF-8" standalone="no"?>
<svg
   xmlns:dc="http://purl.org/dc/elements/1.1/"
   xmlns:cc="http://creativecommons.org/ns#"
   xmlns:rdf="http://www.w3.org/1999/02/22-rdf-syntax-ns#"
   xmlns:svg="http://www.w3.org/2000/svg"
   xmlns="http://www.w3.org/2000/svg"
   xmlns:sodipodi="http://sodipodi.sourceforge.net/DTD/sodipodi-0.dtd"
   xmlns:inkscape="http://www.inkscape.org/namespaces/inkscape"
   version="1.1"
   id="svg192"
   xml:space="preserve"
   width="1628.2955"
   height="937.36053"
   viewBox="0 0 1628.2955 937.36052"
   sodipodi:docname="libplctag-final.svg"
   inkscape:version="1.0 (4035a4fb49, 2020-05-01)"><metadata
     id="metadata198"><rdf:RDF><cc:Work
         rdf:about=""><dc:format>image/svg+xml</dc:format><dc:type
           rdf:resource="http://purl.org/dc/dcmitype/StillImage" /><dc:title></dc:title></cc:Work></rdf:RDF></metadata><defs
     id="defs196"><clipPath
       clipPathUnits="userSpaceOnUse"
       id="clipPath208"><path
         d="M 0,2000 H 2000 V 0 H 0 Z"
         id="path206" /></clipPath></defs><sodipodi:namedview
     fit-margin-bottom="0"
     fit-margin-right="0"
     fit-margin-left="0"
     fit-margin-top="0"
     inkscape:pagecheckerboard="false"
     inkscape:document-rotation="0"
     pagecolor="#ffffff"
     bordercolor="#666666"
     borderopacity="1"
     objecttolerance="10"
     gridtolerance="10"
     guidetolerance="10"
     inkscape:pageopacity="0"
     inkscape:pageshadow="2"
     inkscape:window-width="1920"
     inkscape:window-height="1017"
     id="namedview194"
     showgrid="false"
     inkscape:zoom="0.11269514"
     inkscape:cx="901.21601"
     inkscape:cy="680.38521"
     inkscape:window-x="1912"
     inkscape:window-y="-8"
     inkscape:window-maximized="1"
     inkscape:current-layer="g200" /><g
     id="g200"
     inkscape:groupmode="layer"
     inkscape:label="source file"
     transform="matrix(1.3333333,0,0,-1.3333333,-457.59079,1822.6248)"><g
       id="g202"><g
         id="g204"
         clip-path="url(#clipPath208)"><g
           id="g210"
           transform="translate(545.5879,1002.27)"><path
             d="m 0,0 v 71.455 h -26.881 v 15.021 h 45.847 v -87.46 c 0,-10.757 6.352,-14.834 14.48,-14.834 4.169,0 8.608,0.967 13.778,3.126 l 4.407,-14.019 C 43.709,-29.646 38.222,-31.286 28.809,-31.286 10.009,-31.286 0,-19.762 0,0"
             style="fill:#000000;fill-opacity:1;fill-rule:nonzero;stroke:none"
             id="path212" /></g><g
           id="g214"
           transform="translate(650.3569,1080.8325)"><path
             d="M 0,0 C 0,7.555 5.675,12.781 13.47,12.781 21.266,12.781 26.941,7.555 26.941,0 26.941,-7.66 21.266,-12.663 13.47,-12.663 5.675,-12.663 0,-7.66 0,0 m 5.23,-42.361 h -34.79 v 15.019 h 53.758 v -80.539 H 5.23 Z"
             style="fill:#000000;fill-opacity:1;fill-rule:nonzero;stroke:none"
             id="path216" /></g><g
           id="g218"
           transform="translate(775.6035,1014.3091)"><path
             d="m 0,0 c 0,16.042 -5.657,25.458 -18.675,25.458 -6.088,0 -12.541,-2.887 -19.072,-9.641 v -36.192 c 5.935,-5.34 12.673,-7.258 17.69,-7.258 C -8.81,-27.633 0,-18.234 0,0 m -39.574,-32.501 h -0.551 l -1.673,-8.857 H -56.714 V 74.437 h 18.967 V 44.549 l -0.776,-14.09 h 0.553 c 6.613,6.596 15.817,10.689 24.442,10.689 20.879,0 32.944,-16.086 32.944,-40.864 0,-27.642 -17.056,-43.609 -35.551,-43.609 -7.692,0 -16.421,3.919 -23.439,10.824"
             style="fill:#000000;fill-opacity:1;fill-rule:nonzero;stroke:none"
             id="path220" /></g><g
           id="g222"
           transform="translate(873.9873,1014.3091)"><path
             d="m 0,0 c 0,16.042 -5.657,25.458 -18.675,25.458 -6.087,0 -12.541,-2.887 -19.072,-9.641 v -36.192 c 5.935,-5.34 12.674,-7.258 17.483,-7.258 C -8.81,-27.633 0,-18.234 0,0 m -56.714,39.182 h 15.485 l 1.449,-9.204 h 0.552 c 6.957,6.509 16.671,11.17 25.864,11.17 20.879,0 32.78,-16.086 32.78,-41.028 0,-27.478 -17.055,-43.445 -35.759,-43.445 -7.259,0 -15.359,3.47 -21.851,9.548 h -0.449 l 0.896,-14.123 v -25.328 h -18.967 z"
             style="fill:#000000;fill-opacity:1;fill-rule:nonzero;stroke:none"
             id="path224" /></g><g
           id="g226"
           transform="translate(939.1206,1002.27)"><path
             d="m 0,0 v 71.455 h -26.881 v 15.021 h 45.848 v -87.46 c 0,-10.757 6.352,-14.834 14.479,-14.834 4.169,0 8.608,0.967 13.778,3.126 l 4.407,-14.019 C 43.71,-29.646 38.222,-31.286 28.809,-31.286 10.009,-31.286 0,-19.762 0,0"
             style="fill:#000000;fill-opacity:1;fill-rule:nonzero;stroke:none"
             id="path228" /></g><g
           id="g230"
           transform="translate(1012.5703,1013.1172)"><path
             d="m 0,0 c 0,26.91 21.177,42.34 45.764,42.34 12.895,0 23.068,-4.886 29.748,-11.341 L 66.562,19.118 C 60.183,24.151 53.896,26.873 46.677,26.873 30.538,26.873 19.415,16.2 19.415,0 c 0,-16.096 10.959,-26.665 26.693,-26.665 9.177,0 16.776,4.066 22.973,8.858 l 7.934,-12.104 C 67.678,-37.964 55.908,-42.133 44.463,-42.133 19.176,-42.133 0,-26.702 0,0"
             style="fill:#000000;fill-opacity:1;fill-rule:nonzero;stroke:none"
             id="path232" /></g><g
           id="g234"
           transform="translate(1130.0518,1005.3296)"><path
             d="M 0,0 V 33.142 H -21.546 V 47.28 L 0.793,48.161 3.26,73.38 H 18.967 V 48.161 H 55.589 V 33.142 H 18.967 V 0.076 c 0,-13.303 4.996,-19.298 18.606,-19.298 6.717,0 12.259,1.355 17.517,3.246 l 3.674,-13.795 C 51.549,-32.154 43.42,-34.345 32.996,-34.345 8.387,-34.345 0,-20.52 0,0"
             style="fill:#000000;fill-opacity:1;fill-rule:nonzero;stroke:none"
             id="path236" /></g><g
           id="g238"
           transform="translate(1264.5156,995.6436)"><path
             d="M 0,0 V 16.93 C -28.934,15.029 -37.277,9.087 -37.277,0.398 c 0,-7.092 6.272,-10.159 14.253,-10.159 8.115,0 15.586,3.782 23.024,9.761 m -55.66,-1.066 c 0,18.054 15.884,27.045 55.66,29.844 -0.674,9.018 -6.041,15.792 -19.168,15.792 -9.067,0 -18.03,-3.955 -26.312,-8.547 l -7.037,12.554 c 9.765,5.848 22.97,11.237 36.848,11.237 22.353,0 34.637,-12.412 34.637,-34.842 V -22.692 H 3.379 l -1.449,9.98 H 1.377 c -8.449,-6.525 -19.267,-11.947 -30.056,-11.947 -15.706,0 -26.981,9.627 -26.981,23.593"
             style="fill:#000000;fill-opacity:1;fill-rule:nonzero;stroke:none"
             id="path240" /></g><g
           id="g242"
           transform="translate(1358.2207,1026.4434)"><path
             d="m 0,0 c 0,9.827 -6.875,15.926 -15.297,15.926 -8.317,0 -15.236,-6.099 -15.236,-15.926 0,-10.155 6.919,-16.149 15.236,-16.149 C -6.875,-16.149 0,-10.155 0,0 m 12.604,-63.696 c 0,6.34 -5.527,7.929 -16.217,7.929 h -12.869 c -5.253,0 -9.052,0.329 -12.255,1.192 -5.798,-3.318 -7.941,-6.825 -7.941,-10.573 0,-7.221 8.478,-11.384 23.305,-11.384 15.762,0 25.977,5.961 25.977,12.836 m -65.016,-3.968 c 0,6.516 4.47,12.429 12.877,16.987 v 0.656 c -4.384,2.537 -8.199,6.697 -8.199,13.479 0,5.265 3.684,11.065 9.631,15.104 v 0.656 c -5.712,4.04 -10.321,11.271 -10.321,20.782 0,18.465 15.454,29.014 33.127,29.014 4.711,0 8.905,-0.655 12.59,-1.967 h 33.02 V 12.63 H 11.817 c 2.705,-3.109 5.099,-8.051 5.099,-13.302 0,-17.897 -14.152,-27.325 -32.213,-27.325 -3.678,0 -8.056,0.743 -12.304,2.289 -3.211,-2.098 -4.906,-4.327 -4.906,-7.558 0,-5.268 5.164,-7.618 15.179,-7.618 H -0.9 c 20.92,0 31.721,-5.609 31.721,-19.656 0,-15.947 -18.06,-28.601 -46.441,-28.601 -22.203,0 -36.792,7.133 -36.792,21.477"
             style="fill:#000000;fill-opacity:1;fill-rule:nonzero;stroke:none"
             id="path244" /></g><path
           d="M 696.072,1147.418 H 521.207 v 174.865 h 174.865 z"
           style="fill:#16a9e1;fill-opacity:1;fill-rule:nonzero;stroke:none"
           id="path246" /><path
           d="M 922.415,1147.418 H 747.551 v 174.865 h 174.864 z"
           style="fill:#16a9e1;fill-opacity:1;fill-rule:nonzero;stroke:none"
           id="path248" /><path
           d="M 1160.198,1147.418 H 985.334 v 174.865 h 174.864 z"
           style="fill:#16a9e1;fill-opacity:1;fill-rule:nonzero;stroke:none"
           id="path250" /><path
           d="m 1386.542,1147.418 h -174.864 v 174.865 h 174.864 z"
           style="fill:#16a9e1;fill-opacity:1;fill-rule:nonzero;stroke:none"
           id="path252" /><path
           d="M 696.072,708.634 H 521.207 v 174.865 h 174.865 z"
           style="fill:#16a9e1;fill-opacity:1;fill-rule:nonzero;stroke:none"
           id="path254" /><path
           d="M 922.415,708.634 H 747.551 v 174.865 h 174.864 z"
           style="fill:#16a9e1;fill-opacity:1;fill-rule:nonzero;stroke:none"
           id="path256" /><path
           d="M 1160.198,708.634 H 985.334 v 174.865 h 174.864 z"
           style="fill:#16a9e1;fill-opacity:1;fill-rule:nonzero;stroke:none"
           id="path258" /><path
           d="m 1386.542,708.634 h -174.864 v 174.865 h 174.864 z"
           style="fill:#16a9e1;fill-opacity:1;fill-rule:nonzero;stroke:none"
           id="path260" /><g
           id="g262"
           transform="translate(1387.8428,681.9326)"><path
             d="m 0,0 h 26.158 c 52.319,0 65.398,29.428 65.398,88.286 0,53.953 -4.906,99.731 -4.906,160.223 0,44.143 8.176,73.572 39.24,83.381 v 3.27 c -31.064,9.81 -39.24,37.605 -39.24,83.382 0,60.492 4.906,106.27 4.906,160.223 0,58.857 -13.079,88.286 -65.398,88.286 H 0 v 17.985 h 24.523 c 58.859,0 88.287,-21.254 88.287,-103 0,-60.494 -6.54,-114.447 -6.54,-173.304 0,-32.699 13.08,-65.398 70.302,-65.398 v -19.618 c -57.222,0 -70.302,-32.699 -70.302,-67.031 0,-57.224 6.54,-111.177 6.54,-171.668 C 112.81,3.27 83.382,-17.984 24.523,-17.984 H 0 Z"
             style="fill:#221f1f;fill-opacity:1;fill-rule:nonzero;stroke:none"
             id="path264" /></g><g
           id="g266"
           transform="translate(406.9551,766.9492)"><path
             d="m 0,0 c 0,60.491 6.539,114.444 6.539,171.668 0,34.332 -13.078,67.031 -70.301,67.031 v 19.619 c 57.223,0 70.301,32.699 70.301,65.397 0,58.857 -6.539,112.81 -6.539,173.304 0,81.746 29.428,103 88.287,103 H 112.81 V 582.034 H 86.651 c -52.317,0 -65.397,-29.429 -65.397,-88.285 0,-53.953 4.906,-99.732 4.906,-160.224 0,-45.777 -8.176,-73.572 -39.24,-83.381 v -3.27 C 17.984,237.064 26.16,207.636 26.16,163.492 26.16,103 21.254,57.223 21.254,3.27 c 0,-58.859 13.08,-88.287 65.397,-88.287 h 26.159 v -17.984 H 88.287 C 29.428,-103.001 0,-81.747 0,0"
             style="fill:#221f1f;fill-opacity:1;fill-rule:nonzero;stroke:none"
             id="path268" /></g></g></g></g></svg>
